# xmcd
#
# Track frame offsets:
#	150
#	18057
#	32335
#	48752
#	65694
#	82167
#	101680
#	117736
#	133775
#	149486
#	166464
#	188859
#	208248
#	235868
#	260465
#
# Disc length: 3532 seconds
#
# Revision: 0
# Processed by: cddbd v1.5.1PL0 Copyright (c) Steve Scherf et al.
# Submitted via: dBpowerAMP V4.0
#
DISCID=da0dca0f
DTITLE=Amerie - Touch
DYEAR=2005
DGENRE=R&B
TTITLE0=1Thing
TTITLE1=All I Need
TTITLE2=Touch
TTITLE3=Not The Only One
TTITLE4=Like It Used To Be
TTITLE5=Talkin' About
TTITLE6=Come With Me
TTITLE7=Rolling Down My Face
TTITLE8=Can We Go
TTITLE9=Just Like Me
TTITLE10=Falling
TTITLE11=1 Thing Remix
TTITLE12=Why Don't We Fall In Love Remix
TTITLE13=DATA
TTITLE14=DATA
EXTD=R&B Album
EXTT0=
EXTT1=
EXTT2=
EXTT3=
EXTT4=
EXTT5=
EXTT6=
EXTT7=
EXTT8=
EXTT9=
EXTT10=
EXTT11=
EXTT12=
EXTT13=
EXTT14=
PLAYORDER=
